HIERARCHY
ROOT Hips
{
	OFFSET -14.64140 90.27770 -84.91600
	CHANNELS 6 Xposition Yposition Zposition Zrotation Xrotation Yrotation
	JOINT Spine
	{
		OFFSET 0.00000 13.20850 -1.60436
		CHANNELS 3 Zrotation Xrotation Yrotation
		JOINT Spine1
		{
			OFFSET 0.00000 8.61716 0.00000
			CHANNELS 3 Zrotation Xrotation Yrotation
			JOINT Spine2
			{
				OFFSET 0.00000 8.61717 0.00000
				CHANNELS 3 Zrotation Xrotation Yrotation
				JOINT Spine3
				{
					OFFSET 0.00000 8.61717 0.00000
					CHANNELS 3 Zrotation Xrotation Yrotation
					JOINT Neck
					{
						OFFSET 0.00000 11.07920 1.10792
						CHANNELS 3 Zrotation Xrotation Yrotation
						JOINT Neck1
						{
							OFFSET 0.00000 7.08032 0.00000
							CHANNELS 3 Zrotation Xrotation Yrotation
							JOINT Head
							{
								OFFSET 0.00000 7.08031 0.00000
								CHANNELS 3 Zrotation Xrotation Yrotation
								End site
								{
									OFFSET 0.00000 0.00000 0.00000
								}
							}
						}
					}
					JOINT RightShoulder
					{
						OFFSET -0.01000 7.91373 5.19711
						CHANNELS 3 Zrotation Xrotation Yrotation
						JOINT RightArm
						{
							OFFSET -18.41580 0.00000 0.00000
							CHANNELS 3 Zrotation Xrotation Yrotation
							JOINT RightForeArm
							{
								OFFSET -29.11090 0.00000 0.00000
								CHANNELS 3 Zrotation Xrotation Yrotation
								JOINT RightHand
								{
									OFFSET -24.65040 0.00000 0.00000
									CHANNELS 3 Zrotation Xrotation Yrotation
									JOINT RightHandThumb1
									{
										OFFSET -5.35114 -0.85590 3.97906
										CHANNELS 3 Zrotation Xrotation Yrotation
										JOINT RightHandThumb2
										{
											OFFSET -4.52789 0.00000 0.00000
											CHANNELS 3 Zrotation Xrotation Yrotation
											JOINT RightHandThumb3
											{
												OFFSET -2.46976 0.00000 0.00000
												CHANNELS 3 Zrotation Xrotation Yrotation
												End site
												{
													OFFSET 0.00000 0.00000 0.00000
												}
											}
										}
									}
									JOINT RightHandIndex1
									{
										OFFSET -14.26970 0.00000 2.88139
										CHANNELS 3 Zrotation Xrotation Yrotation
										JOINT RightHandIndex2
										{
											OFFSET -5.48836 0.00000 0.00000
											CHANNELS 3 Zrotation Xrotation Yrotation
											JOINT RightHandIndex3
											{
												OFFSET -3.01859 0.00000 0.00000
												CHANNELS 3 Zrotation Xrotation Yrotation
												End site
												{
													OFFSET 0.00000 0.00000 0.00000
												}
											}
										}
									}
									JOINT RightHandMiddle1
									{
										OFFSET -14.26970 0.00000 -0.09147
										CHANNELS 3 Zrotation Xrotation Yrotation
										JOINT RightHandMiddle2
										{
											OFFSET -6.17441 0.00000 0.00000
											CHANNELS 3 Zrotation Xrotation Yrotation
											JOINT RightHandMiddle3
											{
												OFFSET -3.56743 0.00000 0.00000
												CHANNELS 3 Zrotation Xrotation Yrotation
												End site
												{
													OFFSET 0.00000 0.00000 0.00000
												}
											}
										}
									}
									JOINT RightHandRing1
									{
										OFFSET -12.69180 0.00000 -3.06433
										CHANNELS 3 Zrotation Xrotation Yrotation
										JOINT RightHandRing2
										{
											OFFSET -5.62556 0.00000 0.00000
											CHANNELS 3 Zrotation Xrotation Yrotation
											JOINT RightHandRing3
											{
												OFFSET -3.56744 0.00000 0.00000
												CHANNELS 3 Zrotation Xrotation Yrotation
												End site
												{
													OFFSET 0.00000 0.00000 0.00000
												}
											}
										}
									}
									JOINT RightHandPinky1
									{
										OFFSET -11.11390 0.00000 -6.03719
										CHANNELS 3 Zrotation Xrotation Yrotation
										JOINT RightHandPinky2
										{
											OFFSET -4.52789 0.00000 0.00000
											CHANNELS 3 Zrotation Xrotation Yrotation
											JOINT RightHandPinky3
											{
												OFFSET -2.46976 0.00000 0.00000
												CHANNELS 3 Zrotation Xrotation Yrotation
												End site
												{
													OFFSET 0.00000 0.00000 0.00000
												}
											}
										}
									}
								}
							}
						}
					}
					JOINT LeftShoulder
					{
						OFFSET 0.01000 7.91373 5.19711
						CHANNELS 3 Zrotation Xrotation Yrotation
						JOINT LeftArm
						{
							OFFSET 18.41580 0.00000 0.00000
							CHANNELS 3 Zrotation Xrotation Yrotation
							JOINT LeftForeArm
							{
								OFFSET 29.11090 0.00000 0.00000
								CHANNELS 3 Zrotation Xrotation Yrotation
								JOINT LeftHand
								{
									OFFSET 24.65040 0.00000 0.00000
									CHANNELS 3 Zrotation Xrotation Yrotation
									JOINT LeftHandThumb1
									{
										OFFSET 5.35114 -0.85590 3.97906
										CHANNELS 3 Zrotation Xrotation Yrotation
										JOINT LeftHandThumb2
										{
											OFFSET 4.52789 0.00000 0.00000
											CHANNELS 3 Zrotation Xrotation Yrotation
											JOINT LeftHandThumb3
											{
												OFFSET 2.46977 0.00000 0.00000
												CHANNELS 3 Zrotation Xrotation Yrotation
												End site
												{
													OFFSET 0.00000 0.00000 0.00000
												}
											}
										}
									}
									JOINT LeftHandIndex1
									{
										OFFSET 14.26970 0.00000 2.88139
										CHANNELS 3 Zrotation Xrotation Yrotation
										JOINT LeftHandIndex2
										{
											OFFSET 5.48836 0.00000 0.00000
											CHANNELS 3 Zrotation Xrotation Yrotation
											JOINT LeftHandIndex3
											{
												OFFSET 3.01859 0.00000 0.00000
												CHANNELS 3 Zrotation Xrotation Yrotation
												End site
												{
													OFFSET 0.00000 0.00000 0.00000
												}
											}
										}
									}
									JOINT LeftHandMiddle1
									{
										OFFSET 14.26970 0.00000 -0.09147
										CHANNELS 3 Zrotation Xrotation Yrotation
										JOINT LeftHandMiddle2
										{
											OFFSET 6.17440 0.00000 0.00000
											CHANNELS 3 Zrotation Xrotation Yrotation
											JOINT LeftHandMiddle3
											{
												OFFSET 3.56744 0.00000 0.00000
												CHANNELS 3 Zrotation Xrotation Yrotation
												End site
												{
													OFFSET 0.00000 0.00000 0.00000
												}
											}
										}
									}
									JOINT LeftHandRing1
									{
										OFFSET 12.69180 0.00000 -3.06433
										CHANNELS 3 Zrotation Xrotation Yrotation
										JOINT LeftHandRing2
										{
											OFFSET 5.62556 0.00000 0.00000
											CHANNELS 3 Zrotation Xrotation Yrotation
											JOINT LeftHandRing3
											{
												OFFSET 3.56744 0.00000 0.00000
												CHANNELS 3 Zrotation Xrotation Yrotation
												End site
												{
													OFFSET 0.00000 0.00000 0.00000
												}
											}
										}
									}
									JOINT LeftHandPinky1
									{
										OFFSET 11.11390 0.00000 -6.03719
										CHANNELS 3 Zrotation Xrotation Yrotation
										JOINT LeftHandPinky2
										{
											OFFSET 4.52789 0.00000 0.00000
											CHANNELS 3 Zrotation Xrotation Yrotation
											JOINT LeftHandPinky3
											{
												OFFSET 2.46976 0.00000 0.00000
												CHANNELS 3 Zrotation Xrotation Yrotation
												End site
												{
													OFFSET 0.00000 0.00000 0.00000
												}
											}
										}
									}
								}
							}
						}
					}
					JOINT pCube4
					{
						OFFSET 0.00000 10.91090 1.10792
						CHANNELS 3 Zrotation Xrotation Yrotation
						End site
						{
							OFFSET 0.00000 0.00000 0.00000
						}
					}
				}
			}
		}
	}
	JOINT RightUpLeg
	{
		OFFSET -9.98441 0.00000 0.00000
		CHANNELS 3 Zrotation Xrotation Yrotation
		JOINT RightLeg
		{
			OFFSET 0.00000 -42.11790 0.00000
			CHANNELS 3 Zrotation Xrotation Yrotation
			JOINT RightFoot
			{
				OFFSET 0.00000 -45.00020 -0.00001
				CHANNELS 3 Zrotation Xrotation Yrotation
				JOINT RightForeFoot
				{
					OFFSET 0.00000 -3.74820 0.00000
					CHANNELS 3 Zrotation Xrotation Yrotation
					JOINT RightToeBase
					{
						OFFSET 0.00000 0.06325 14.43120
						CHANNELS 3 Zrotation Xrotation Yrotation
						End site
						{
							OFFSET 0.00000 0.00000 0.00000
						}
					}
				}
			}
		}
	}
	JOINT LeftUpLeg
	{
		OFFSET 9.98441 0.00000 0.00000
		CHANNELS 3 Zrotation Xrotation Yrotation
		JOINT LeftLeg
		{
			OFFSET 0.00000 -42.11800 0.00000
			CHANNELS 3 Zrotation Xrotation Yrotation
			JOINT LeftFoot
			{
				OFFSET 0.00000 -45.00070 0.00000
				CHANNELS 3 Zrotation Xrotation Yrotation
				JOINT LeftForeFoot
				{
					OFFSET 0.00000 -3.74824 0.00000
					CHANNELS 3 Zrotation Xrotation Yrotation
					JOINT LeftToeBase
					{
						OFFSET 0.00000 0.06325 14.43110
						CHANNELS 3 Zrotation Xrotation Yrotation
						End site
						{
							OFFSET 0.00000 0.00000 0.00000
						}
					}
				}
			}
		}
	}
}
MOTION
Frames: 4
Frame Time: 0.050000
0.03086649468203074 -0.013409288623881094 0.00773664791267533 -0.01974992897242694 0.016638034064723695 -0.04551474822718902 -3.699412051974831 4.220662329448805 -0.6122735028261631 -1.065795761916672 3.9166032446650743 0.4296178223285974 -1.3784259304342064 -1.0008128049832175 -0.13779739856974452 0.4112050111503517 0.857046937034635 -0.8067912995031341 0.701519643420343 12.151315327452796 -2.209288108055099 -0.40684979927599835 -1.8366790590832474 -8.940728861011072 0.5160502780892589 -17.993672188554093 -0.7410422611490959 -3.640891741591953 1.5221904011099894 -13.155936021478858 69.85528046215794 15.05583472777451 22.678417414999434 6.809644464560235 5.119143560824823 84.69586997889945 13.467797001980374 -0.45226988580506816 -4.445251653252636 4.529175652278535 -0.14313370748225995 -1.6177118189270197 0.03338729921131027 0.012055153287950378 -56.27979581490681 0.0013412616123624945 -0.03400508847349595 -56.18998161134735 -38.78614970593087 -0.02775513552565853 -0.01743322524222721 -0.007675661129972426 -0.007031444962733853 -0.03615351973335531 -0.019296551455242224 -0.018497538779623065 0.015449141845684956 -36.70885862905328 -0.022705883379104386 -0.004269324993588443 0.028848271606920498 -0.008672989677169146 -0.0485596682672819 -0.03508444787061308 0.028561932713607536 -0.005585969607252767 -19.765356046942966 0.014759754856504742 -0.017473903255874543 -0.010690865787202878 -0.014252375417286068 -0.0032078865076387805 -0.00029232474558522827 -0.019903178786205112 0.0407957465994229 24.085219712690517 0.0013274161059979408 0.02954950766557044 28.816293847527312 -0.046729296523032565 0.03268536272549065 28.841415982588078 0.03151568370632722 0.011265226809474055 1.4026517760726531 0.5844456899573337 11.599896627399383 -66.03500809160208 25.981891477450272 -7.425523502422323 6.853162946502995 -13.407698358431107 -52.88765102547215 -8.91875085346767 2.5271896736104615 0.6466469405395989 -0.45974610560947315 0.03141224930718381 -8.128491709333302 -0.003966157847202906 -0.03690818368530482 44.547488926435705 -0.029117448287535493 0.02315645864766672 44.544940083904336 12.433212778007217 -0.03758973444384151 0.04300807458504043 0.029233392553164022 0.028940778932288747 0.049028568163225615 -0.02571507935276784 -0.02883534203320522 0.01821227265519896 11.067462762437282 0.046008300427554404 -0.04393502348158359 -0.021138474353056526 0.042464178522053427 0.022005517736236848 0.04377371788113319 0.03182611425149062 -0.0034658800400094326 4.792504838663641 0.025274615932037357 -0.04526620726759729 0.02577440893928601 -0.03408300781280793 0.03630718454412737 -0.022083157401038934 -0.04487438350679958 0.012207151138061964 -5.612882482912909 -0.0032050582620626756 -0.03191593104565257 -6.691521674082156 -0.03534167826213199 0.041082082111985746 -6.683496815538556 0.045301304753629305 0.027122368076042385 -0.007762060332479625 -0.032913363379411316 -0.027671186851461207 8.0329169306156 3.4895821579589676 -19.201054064419605 0.030570853984149684 10.394854449131586 0.027877635656855172 -5.638793987753577 -15.653987449561207 3.165659368355723 0.04568674209398934 -0.038489854645442724 -0.023079246239047804 -0.016103638005124963 4.696568205155263 -0.011596305021478893 12.468576055594033 -8.228544368272438 6.868169813538335 0.04178675951329939 46.41448553877185 -0.007714985835169006 -4.282223062347667 -14.79563894370171 -3.8485800577873155 -0.015531685157196655 0.008991629181003389 -0.0031808807816534183 0.007190855310676158 -10.726873835648773 -0.020710858100229268 
0.006259771124641708 -0.02580245118143831 0.02550063098096858 -0.03374082864404686 0.025383044924979066 -0.0032117245097124424 -3.5399437554338453 3.9612665594523504 -0.6505015117221394 -1.0598853391526812 3.8928223256021695 0.45474648370189613 -1.323175597900552 -1.1153426081787787 -0.13130508841377464 0.38892163353456094 0.8014339746667414 -0.7192249530943728 0.6281144135639595 12.429590765392907 -2.023327198001103 -0.36283088206497954 -1.7124343554687507 -8.345902665734489 0.49111983559448286 -17.950818972963816 -0.6996814740431666 -4.157753271086325 1.683772870008624 -13.333025159468324 70.42464759151456 14.519306724852237 21.951509666336747 4.433923942475159 4.995617642284489 82.61739862235883 13.265158504520373 -0.48066584337666723 -4.127367124341119 4.562454608443092 -0.1466604224674101 -1.5826983727992139 -0.0455001995744577 -0.009313895668932407 -56.28170068975256 -0.02881275706704552 0.01295895135397087 -56.25851650593911 -38.76651760374214 -0.03044082944241947 0.030940054689785626 -0.03394253108690335 0.008267966215759677 0.012721377646914438 0.012137778795637828 -0.009576922107368728 0.04505743179960737 -36.66862215314986 0.020682282198189135 0.017202980025927433 -0.03746132781147057 -0.025294895981234276 0.036832265277715305 -0.006170860340706919 -0.002385633993193843 -0.01132693239265289 -19.71327186870135 -0.006367776450649784 -0.010166613182734093 -0.014892620490414706 -0.03971025614279935 0.0079077316997507 -0.04591188254399061 0.035456251163594625 -0.02515383737103341 24.038082097023437 0.009067859857172945 0.018782124038799308 28.816392848073015 0.01033340951941992 -0.049573244009621646 28.86130324298071 0.019751797310555888 0.022733937733166416 2.066783247820688 0.6946170214578798 11.870430783344288 -66.3920564633037 26.107651889067707 -7.6423802679988215 6.5442427667080905 -13.583492911925887 -52.86940440734727 -9.088228942719855 1.9341723542134333 0.9724593496282 -0.46807430550114654 0.10409453480492079 -8.148290067111809 -0.02850364281381758 -0.041626451749765106 44.553431656618024 0.0392830985814879 -0.049715882684575025 44.57482130138261 12.484888738334757 -0.004743109477424114 0.026753541422083055 -0.03846473551902214 0.022754800213446925 0.01277916252610624 0.03395106016069962 -0.048260903487026496 0.03091201731006487 11.14867089091242 0.022502582735446613 0.04316798431381419 -0.04593075832573414 0.008509797083967872 0.011531331885839961 0.04285430116111099 0.01865109041369068 -0.04550067489443309 4.776651323505952 -0.027797685060542303 0.047031324024192085 0.03384571498431865 0.023304599130145306 0.03078588818265212 -0.00948922985683259 -0.030643177971919615 0.007622611672179572 -5.566500262362764 -0.013879663254213291 -0.03131158181035226 -6.759703765649789 -0.002763661499563812 -0.019279722241277227 -6.73925455232332 0.0361816926539902 0.02529783476338905 -0.0008771461908692808 -0.02632794569179936 0.01956351050350719 8.03454453416307 3.463037213394913 -19.22326276382861 0.03210671834666015 10.385307082204115 0.017083076919477965 -5.638282983228211 -15.686905749021708 3.1454622211749252 -0.01612478170057753 0.0008432865049347284 0.03455082634493468 -0.04401059420804614 4.687057003549961 -0.033598843389202895 12.423749317560654 -8.239644837563226 6.918122342923401 0.02306290021951643 46.35707333950746 0.02785201081218026 -4.29125319123252 -14.699642879185765 -3.860783653337564 -0.038373952926862125 0.021929771460977063 0.021416200831730136 0.019038913471619432 -10.772590664610329 -0.015560458432626344 
-0.005973859392213659 0.013324923963271607 0.034404516963476836 0.013351450687319225 -0.02321962565414633 0.028760260270376422 -3.2064679653642716 3.7639108623480504 -0.6704821421855229 -1.0509988064377547 3.9080294116075334 0.3982340862398129 -1.303972201657736 -1.1812201169770657 -0.05244882859189548 0.30843576474719003 0.7724220926110638 -0.7159315626316226 0.571867599575207 12.770325137285294 -1.9232024547346578 -0.2866485133848879 -1.6224113027038838 -7.874132070330397 0.4804302150935228 -17.778160983005304 -0.6766844109524872 -4.6084938303562115 1.7640119730810802 -13.568249970225425 70.97790402661423 14.72776911892047 21.14992871040326 1.575674972492781 4.715812535940209 79.13942067368706 13.329709876854858 -0.41166853038169093 -3.758340754524658 4.538489703801328 -0.08425383689754942 -1.550299722301522 0.011055624780441344 -0.04029059769616338 -56.25939622220324 -0.03969811086902627 0.005586995316760477 -56.269544961055274 -38.79400000513738 0.016513321926788657 -0.046695778610918726 0.015070883521272442 0.04877501435856883 -0.04920310209089773 0.01350527970744111 0.026401650214607535 0.030357240209465272 -36.71724693194524 -0.007110858931763804 0.021363416109988726 0.02411820928609221 -0.04547131531127664 0.0076493138063113645 -0.020495987568366642 0.04650593456945108 0.01791987929257936 -19.708931246036666 -0.02551206020560815 0.03276045515250865 0.026498964017833984 -0.021338497352812853 0.03240678839199696 -0.012419447896472185 0.03606001541428401 0.027465599457894025 24.098699180320377 0.03722473705536352 -0.02472163541581105 28.845050735371828 -0.0034659579274942637 -0.04788590000477125 28.84947010384764 0.02535134844601314 -0.035419786071074745 2.687915630636451 0.7885991323300471 12.093011061553629 -66.36733652343774 26.334092629416592 -8.191588146654723 6.06647800544743 -13.522072818357556 -53.033098391254164 -9.223601925517725 1.3031289639253196 1.3922041518089279 -0.509289825004297 0.06391895238700696 -8.111352214149944 -0.00429220159329769 -0.000165001123730411 44.54386141076597 0.0014557481467153517 -0.039738617948671014 44.56893642287701 12.461822171963991 -0.013459303225290441 0.011428128842229556 0.02973581318325893 0.012416884836692392 -0.03791762768090479 0.007052449511532655 -0.018329697369446857 -0.03016391781076345 11.07468671326659 -0.036940162295459815 -0.046383440411809376 0.030057357848138063 0.006496982739563088 0.007102270871673174 0.006299401022442513 -0.00560317340292463 -0.030745092122184604 4.766430004966548 0.023981110695167084 0.0020556526434231284 0.0011511737506191466 -0.008440528305222742 -0.004248992241489386 -0.040981579256258796 -0.0071509659324037215 0.02968479964798343 -5.603061127700585 0.001469248625343605 0.0007773593048477573 -6.6773993997529555 -0.004019116230402329 -0.047666935686192624 -6.7147187364220775 0.04994661152012542 -0.000684617847883172 -0.007729599945180121 0.006870259289024498 0.015761826346370685 8.065655909124825 3.5395699842475095 -19.220188725170804 0.002160231209763005 10.412046294128254 -0.02620577411224843 -5.6286843005792075 -15.644520628603823 3.2049755061529397 0.02048085837306259 -0.03080885325639587 0.013843538475224926 -0.02836482312915973 4.733651182472748 0.039756326111985575 12.456818455460075 -8.214414907198323 6.902204882710385 -0.020329516499069538 46.37183847944044 -0.04175535847183947 -4.338990140691374 -14.744630757386062 -3.8345061563365492 -0.003008193512394292 -0.006365865400983101 0.01614924452931163 -0.00882127710667054 -10.773287378324584 -0.0499279932116761 
-0.011282199614571928 -0.037236781926902864 0.046390863147255795 -0.014495401255262006 0.01642900558206809 -0.009413974391903251 -2.9492524242823235 3.5132599702666254 -0.6876285348539599 -1.039320654105676 3.918470760503634 0.40703732138841564 -1.3189611349891943 -1.3112737735659004 -0.015610444272943003 0.2688367964079055 0.6953647833412633 -0.6769427144566518 0.5055751013672214 13.010529895588489 -1.8848398994978646 -0.24292684921895666 -1.3799285015029916 -7.502837154259553 0.4505189681795178 -17.511502439422397 -0.5905764141221731 -5.307403417873225 1.9532386413117742 -13.725873703468194 71.31147291141822 13.964780422744228 21.384154224043588 0.15467486346722678 4.159584884523463 78.07621707462309 13.105846953528125 -0.3874480507167905 -3.3480299927709667 4.490249814916903 -0.1005405957512294 -1.599306180307149 -0.0025927385512413397 0.04960884449838368 -56.24985357248921 0.02944277648699923 0.034749729241042124 -56.18568724187269 -38.80555884074697 -0.03625344648800558 -0.01681306457940338 -0.03303708510950316 -0.015430428950633289 0.008710965060063724 -0.017855371400719765 0.002868895928479586 -0.011593183900222194 -36.65619444466435 -0.001007740991854647 -0.02161397626829138 0.048954198699396545 -0.02388584536556941 -0.008834565635913488 0.004986328861145727 -0.010355235610672014 0.001111792147356388 -19.782337988463233 0.03882227845506666 -0.022727791750372133 -0.002234993955422511 -0.010043672942133252 0.014258966425159976 -0.012248927202545619 0.014287919253576344 0.03974121036767024 24.018642063116488 -0.0015800391650753211 -0.007608083103767133 28.83708963256159 0.0006325347490854387 -0.017782487745288518 28.816252009037708 -0.018506552938135367 0.04990932452283106 3.597434204468056 0.9866005685659791 12.254636243191934 -66.40409962731475 25.782469642045026 -9.362030759229421 5.674562581534827 -13.470249214939454 -53.86944420594312 -9.077823475427417 0.9072559397305205 1.4867877075172655 -0.46018778287201656 0.05475939865575654 -8.140989955464546 -0.040427896591020855 0.02879939917118365 44.53344895757145 0.01337579965374463 0.00036078061897237823 44.613039884421894 12.448944054881228 -0.04096402044716747 -0.016151100674550126 -0.025912286890806692 0.030362730025717443 -0.02165166231168468 -0.021338053115773376 1.544079520741722e-05 0.032085564728895385 11.10055286908651 0.020605977911622508 -0.0334821682703685 -0.006240543200011232 -0.04203984707418051 0.01984716839743919 0.027566957573211016 0.04403834205116849 0.022334803798573416 4.723795837414427 -0.011489364874214055 0.015608621193005759 -0.009666219466165159 -0.029847626194366768 0.019984316301012172 -0.011540232624180398 0.031938723469294314 -0.008902739891638686 -5.600173455144756 -0.0020571379418167115 0.00111989974145744 -6.73090397502617 -0.010959145012994102 -0.012587988587682902 -6.740092749532628 0.038947060795627174 0.012282705776876797 0.020607504051642102 -0.04524062486353454 -0.04007172924537234 8.069556867925378 3.5422662588951215 -19.18330353336721 -0.006402262841682804 10.439184371003156 -0.006385766543207293 -5.664959123454553 -15.64529440705524 3.237466055418484 -0.017091726817125168 0.04047552881508535 -0.038911730928318476 -0.04572208024457835 4.747285638938546 0.005909150459400846 12.496009234210703 -8.252767928988533 6.869782418910429 -0.027243098498622966 46.42206817100193 -0.02268761988036561 -4.281912295167059 -14.762874689472165 -3.8473230423658507 0.031650221477360976 0.012641577819324472 -0.004859449776511461 -0.042035420989878884 -10.760460013739161 0.009966485136459403 
